<svg width="133" height="32" viewBox="0 0 133 32" fill="none" xmlns="http://www.w3.org/2000/svg">
<g clip-path="url(#clip0_2054_2686)">
<path d="M28.9531 22.3624H30.3118V17.9957H35.0454V16.7851H30.3118V13.7155H35.6005V12.5049H28.9531V22.3624Z" fill="black"/>
<path d="M47.5943 17.2749C47.9303 16.8281 48.1057 16.194 48.1057 15.387C48.1057 14.3782 47.8281 13.6432 47.3021 13.182C46.7616 12.7208 45.9142 12.4902 44.7454 12.4902H40.8154V22.3334H42.1741V18.2981H44.4678L47.0976 22.3478L47.1122 22.3622H48.7339L46.0457 18.1684C46.7324 18.0243 47.2583 17.7217 47.5943 17.2749ZM42.1887 13.7152H44.687C45.4175 13.7152 45.9434 13.8449 46.2502 14.1043C46.557 14.3637 46.7177 14.7961 46.7177 15.4158C46.7177 16.0355 46.557 16.4678 46.2502 16.7273C45.9434 16.9867 45.4175 17.1164 44.687 17.1164H42.1887V13.7152Z" fill="black"/>
<path d="M55.3089 17.9525H60.2761V16.7419H55.3089V13.7155H61.0943V12.5049H53.9355V22.3624H61.1819V21.1519H55.3089V17.9525Z" fill="black"/>
<path d="M70.6338 16.8573L69.5088 16.6123C68.8368 16.4682 68.3693 16.2808 68.1063 16.0502C67.8579 15.8196 67.7264 15.517 67.7264 15.1279C67.7264 14.0614 68.4715 13.5282 69.9325 13.5282C71.0282 13.5282 71.9486 13.7876 72.6645 14.292L72.7083 14.3208V12.9517L72.6937 12.9373C72.1239 12.5338 71.1743 12.332 69.8887 12.332C67.5511 12.332 66.3531 13.312 66.3531 15.2288C66.3531 15.9205 66.5431 16.4826 66.9083 16.9149C67.2735 17.3329 67.931 17.6499 68.8222 17.8517L69.9179 18.1111C70.6776 18.284 71.1889 18.4858 71.4665 18.702C71.7441 18.9181 71.8756 19.2496 71.8756 19.6676C71.8756 20.7772 71.1013 21.3393 69.5819 21.3393C68.2816 21.3393 67.1567 21.0078 66.2509 20.3305L66.207 20.3017V21.6852L66.2216 21.6996C66.9375 22.2616 68.0625 22.5355 69.5526 22.5355C72.0071 22.5355 73.2489 21.5555 73.2489 19.6099C73.2489 18.8749 73.0444 18.284 72.6499 17.8373C72.2554 17.3905 71.5688 17.059 70.6338 16.8573Z" fill="black"/>
<path d="M80.0139 17.9525H84.9812V16.7419H80.0139V13.7155H85.7994V12.5049H78.6406V22.3624H85.887V21.1519H80.0139V17.9525Z" fill="black"/>
<path d="M97.8662 19.9125L92.9574 12.5193L92.9428 12.5049H91.248V22.3624H92.5629V14.3352L97.8954 22.348V22.3624H99.1811V12.5049H97.8662V19.9125Z" fill="black"/>
<path d="M118.861 18.8316C118.861 19.6963 118.671 20.3304 118.277 20.7195C117.897 21.1086 117.269 21.3104 116.407 21.3104C115.56 21.3104 114.931 21.1086 114.551 20.7195C114.172 20.3304 113.967 19.6963 113.967 18.8316V12.5049H112.608V18.7163C112.608 20.0422 112.915 21.0222 113.514 21.6274C114.113 22.2327 115.077 22.5354 116.392 22.5354C117.707 22.5354 118.657 22.2327 119.256 21.6274C119.855 21.0222 120.147 20.0422 120.147 18.7163V12.5049H118.847V18.8316H118.861Z" fill="black"/>
<path d="M131.922 17.8373C131.528 17.3905 130.841 17.059 129.906 16.8573L128.781 16.6123C128.109 16.4682 127.642 16.2808 127.379 16.0502C127.13 15.8196 126.999 15.517 126.999 15.1279C126.999 14.0614 127.744 13.5282 129.205 13.5282C130.301 13.5282 131.221 13.7876 131.937 14.292L131.981 14.3208V12.9517L131.966 12.9373C131.396 12.5338 130.447 12.332 129.161 12.332C126.824 12.332 125.626 13.312 125.626 15.2288C125.626 15.9205 125.816 16.4826 126.181 16.9149C126.546 17.3329 127.203 17.6499 128.095 17.8517L129.19 18.1111C129.95 18.284 130.461 18.4858 130.739 18.702C131.017 18.9181 131.148 19.2496 131.148 19.6676C131.148 20.7772 130.374 21.3393 128.854 21.3393C127.554 21.3393 126.429 21.0078 125.523 20.3305L125.479 20.3017V21.6852L125.494 21.6996C126.21 22.2616 127.335 22.5355 128.825 22.5355C131.28 22.5355 132.521 21.5555 132.521 19.6099C132.536 18.8749 132.331 18.2696 131.922 17.8373Z" fill="black"/>
<path d="M28.9531 7.02945V0.500977H29.9758V3.31124H33.4675V0.515389H34.3441V7.04386H33.4675V4.1183H29.9758V7.04386H28.9531V7.02945Z" fill="black"/>
<path d="M45.6662 6.32333C45.1986 6.87098 44.4682 7.15921 43.4747 7.15921C42.4959 7.15921 41.7654 6.88539 41.2833 6.32333C40.8157 5.77569 40.5674 4.92541 40.5674 3.77248C40.5674 2.63396 40.8011 1.78367 41.2833 1.22162C41.7508 0.673975 42.4812 0.385742 43.4747 0.385742C44.4536 0.385742 45.184 0.659564 45.6662 1.22162C46.1337 1.76926 46.382 2.61955 46.382 3.77248C46.382 4.92541 46.1483 5.76128 45.6662 6.32333ZM41.9553 5.76128C42.2767 6.17922 42.7881 6.39539 43.4747 6.39539C44.1614 6.39539 44.6727 6.17922 44.9941 5.76128C45.3155 5.34334 45.4762 4.68041 45.4762 3.78689C45.4762 2.87896 45.3155 2.23043 44.9941 1.8125C44.6727 1.39456 44.1614 1.17838 43.4747 1.17838C42.7734 1.17838 42.2767 1.39456 41.9553 1.8125C41.6339 2.23043 41.4732 2.89337 41.4732 3.78689C41.4732 4.68041 41.6339 5.32893 41.9553 5.76128Z" fill="black"/>
<path d="M55.2507 7.14456C54.2134 7.14456 53.4391 6.87074 52.9424 6.30869C52.4456 5.76104 52.1973 4.91076 52.1973 3.75783C52.1973 2.61931 52.4456 1.76902 52.9424 1.20697C53.4391 0.659325 54.1988 0.371094 55.2361 0.371094C55.9227 0.371094 56.4633 0.486385 56.8724 0.70256V1.55285C56.4049 1.27903 55.8789 1.13491 55.2653 1.13491C54.5056 1.13491 53.9504 1.33667 53.6144 1.75461C53.2638 2.17255 53.1031 2.82107 53.1031 3.729C53.1031 4.63694 53.2784 5.31428 53.629 5.71781C53.9796 6.13575 54.5348 6.33751 55.3091 6.33751C55.9081 6.33751 56.4341 6.19339 56.887 5.91957V6.76986C56.4633 7.04368 55.9227 7.14456 55.2507 7.14456Z" fill="black"/>
<path d="M62.8037 7.02945V0.500977H63.6803V3.31124H67.172V0.515389H68.0486V7.04386H67.172V4.1183H63.6803V7.04386H62.8037V7.02945Z" fill="black"/>
<path d="M76.2734 7.14504C75.28 7.14504 74.5495 6.95768 74.0674 6.58298V5.70387C74.681 6.15063 75.4261 6.38122 76.2881 6.38122C77.3253 6.38122 77.8367 6.00651 77.8367 5.2427C77.8367 4.95447 77.749 4.73829 77.5591 4.59417C77.3692 4.45006 77.0331 4.30594 76.5218 4.20506L75.7913 4.03212C75.1923 3.90242 74.7686 3.68624 74.5203 3.41242C74.2719 3.1386 74.155 2.7639 74.155 2.30273C74.155 1.0345 74.9294 0.400391 76.4926 0.400391C77.3546 0.400391 77.9682 0.530096 78.348 0.803917V1.68303C77.8659 1.33715 77.2523 1.17862 76.5218 1.17862C75.5283 1.17862 75.0316 1.53891 75.0316 2.25949C75.0316 2.5189 75.1193 2.73507 75.2946 2.87919C75.4699 3.03772 75.7767 3.15301 76.2296 3.25389L76.9747 3.41242C77.6029 3.54213 78.0412 3.7583 78.3042 4.06094C78.5672 4.34918 78.6987 4.7527 78.6987 5.22829C78.7279 6.51092 77.9097 7.14504 76.2734 7.14504Z" fill="black"/>
<path d="M87.4509 7.14456C86.4136 7.14456 85.6393 6.87074 85.1426 6.30869C84.6458 5.76104 84.3975 4.91076 84.3975 3.75783C84.3975 2.61931 84.6458 1.76902 85.1426 1.20697C85.6393 0.659325 86.399 0.371094 87.4363 0.371094C88.1229 0.371094 88.6635 0.486385 89.0726 0.70256V1.55285C88.605 1.27903 88.0791 1.13491 87.4655 1.13491C86.7058 1.13491 86.1506 1.33667 85.8146 1.75461C85.464 2.17255 85.3033 2.82107 85.3033 3.729C85.3033 4.63694 85.4786 5.31428 85.8292 5.71781C86.1798 6.13575 86.735 6.33751 87.5093 6.33751C88.1083 6.33751 88.6343 6.19339 89.0872 5.91957V6.76986C88.6635 7.04368 88.1229 7.14456 87.4509 7.14456Z" fill="black"/>
<path d="M95.0039 7.02945V0.500977H95.8805V3.31124H99.3722V0.515389H100.249V7.04386H99.3722V4.1183H95.8805V7.04386H95.0039V7.02945Z" fill="black"/>
<path d="M110.986 6.5541C110.592 6.95762 109.964 7.15939 109.087 7.15939C108.211 7.15939 107.582 6.95762 107.188 6.5541C106.793 6.15057 106.589 5.51646 106.589 4.63735V0.515625H107.465V4.70941C107.465 5.28587 107.597 5.71822 107.86 5.97763C108.123 6.23704 108.532 6.38116 109.102 6.38116C109.686 6.38116 110.095 6.25145 110.358 5.97763C110.621 5.71822 110.753 5.28587 110.753 4.70941V0.515625H111.585V4.63735C111.571 5.51646 111.381 6.15057 110.986 6.5541Z" fill="black"/>
<path d="M117.911 7.02945V0.500977H118.788V6.25122H122.104V7.02945H117.911Z" fill="black"/>
<path d="M127.7 7.02945V0.500977H132.434V1.26479H128.577V3.31124H131.879V4.07506H128.577V6.23681H132.492V7.00062H127.7V7.02945Z" fill="black"/>
<path d="M31.3929 31.2261C31.1738 31.4423 30.8232 31.5575 30.341 31.5575C29.8589 31.5575 29.5083 31.4423 29.2891 31.2261C29.07 31.0099 28.9531 30.6496 28.9531 30.1596V27.8682H29.4352V30.2029C29.4352 30.5199 29.5083 30.7649 29.6544 30.909C29.8005 31.0531 30.0342 31.1252 30.341 31.1252C30.6625 31.1252 30.8962 31.0531 31.0423 30.909C31.1884 30.7649 31.2615 30.5199 31.2615 30.2029V27.8682H31.729V30.1596C31.729 30.6352 31.6121 30.9955 31.3929 31.2261Z" fill="black"/>
<path d="M33.2188 31.4852V27.8535H33.8324L35.6732 30.6206V27.8535H36.1407V31.4852H35.6878L33.7009 28.4876V31.4852H33.2188Z" fill="black"/>
<path d="M37.6602 31.4852V27.8535H38.1423V31.4852H37.6602Z" fill="black"/>
<path d="M40.6254 31.4852L39.3105 27.8535H39.8365L40.903 30.8079L41.9695 27.8535H42.4662L41.1514 31.4852H40.6254Z" fill="black"/>
<path d="M43.6211 31.4852V27.8535H46.2508V28.2859H44.1032V29.4244H45.944V29.8567H44.1032V31.0673H46.2801V31.4997H43.6211V31.4852Z" fill="black"/>
<path d="M47.5518 31.4852V27.8535H48.9981C49.4218 27.8535 49.7432 27.94 49.9331 28.1129C50.1231 28.2859 50.2253 28.5453 50.2253 28.92C50.2253 29.2082 50.1669 29.4388 50.0354 29.6117C49.9039 29.7703 49.714 29.8856 49.451 29.9432L50.4445 31.4852H49.8601L48.8812 29.9864H48.0193V31.4852H47.5518ZM48.0339 29.5541H48.9689C49.2465 29.5541 49.4364 29.5109 49.5533 29.41C49.6702 29.3091 49.7286 29.1506 49.7286 28.92C49.7286 28.6894 49.6702 28.5309 49.5533 28.43C49.4364 28.3291 49.2465 28.2859 48.9689 28.2859H48.0339V29.5541Z" fill="black"/>
<path d="M52.693 31.5576C52.1379 31.5576 51.7288 31.4567 51.4658 31.2549V30.7649C51.8018 31.0099 52.2109 31.1396 52.7076 31.1396C53.2774 31.1396 53.5696 30.9235 53.5696 30.5055C53.5696 30.347 53.5112 30.2317 53.4089 30.1452C53.3066 30.0588 53.1167 29.9867 52.8391 29.9291L52.4301 29.8426C52.094 29.7705 51.8603 29.6552 51.7288 29.4967C51.5973 29.3382 51.5243 29.1364 51.5243 28.877C51.5243 28.1708 51.9626 27.8105 52.8245 27.8105C53.3066 27.8105 53.6427 27.8826 53.8618 28.0411V28.5311C53.5842 28.3438 53.2482 28.2429 52.8391 28.2429C52.284 28.2429 52.0064 28.4447 52.0064 28.8482C52.0064 28.9923 52.0502 29.1076 52.1525 29.1941C52.2547 29.2805 52.4155 29.3526 52.6784 29.3958L53.0875 29.4823C53.4381 29.5544 53.6865 29.6696 53.8326 29.8426C53.9787 30.0011 54.0517 30.2173 54.0517 30.4911C54.0517 31.1973 53.5988 31.5576 52.693 31.5576Z" fill="black"/>
<path d="M55.3232 31.4852V27.8535H55.8054V31.4852H55.3232Z" fill="black"/>
<path d="M58.1726 31.4852V28.2859H56.9893V27.8535H59.8381V28.2859H58.6548V31.4852H58.1726Z" fill="black"/>
<path d="M62.0736 31.4855V29.9723L60.7295 27.8682H61.2993L62.3219 29.4967L63.3446 27.8682H63.8852L62.5557 29.9579V31.4855H62.0736Z" fill="black"/>
<path d="M69.5677 31.0964C69.3047 31.399 68.8957 31.5576 68.3551 31.5576C67.8146 31.5576 67.4055 31.399 67.1425 31.0964C66.8795 30.7938 66.748 30.3182 66.748 29.6841C66.748 29.0499 66.8795 28.5744 67.1425 28.2717C67.4055 27.9691 67.8146 27.8105 68.3551 27.8105C68.9103 27.8105 69.3047 27.9691 69.5677 28.2717C69.8307 28.5744 69.9622 29.0499 69.9622 29.6841C69.9622 30.3182 69.8307 30.7793 69.5677 31.0964ZM67.5077 30.7793C67.6831 31.0099 67.9753 31.1252 68.3551 31.1252C68.735 31.1252 69.0272 31.0099 69.2025 30.7793C69.3778 30.5488 69.4654 30.1741 69.4654 29.6841C69.4654 29.1797 69.3778 28.8194 69.2025 28.5888C69.0272 28.3582 68.735 28.2429 68.3551 28.2429C67.9753 28.2429 67.6831 28.3582 67.5077 28.5888C67.3324 28.8194 67.2448 29.1941 67.2448 29.6841C67.2302 30.1741 67.3324 30.5488 67.5077 30.7793Z" fill="black"/>
<path d="M71.3213 31.4852V27.8535H73.7611V28.2859H71.8034V29.4388H73.5566V29.8711H71.8034V31.4852H71.3213Z" fill="black"/>
<path d="M76.5664 31.4852L78.0274 27.8535H78.5241L79.9851 31.4852H79.4591L79.1085 30.5917H77.3992L77.0485 31.4852H76.5664ZM77.5745 30.1594H78.9332L78.2465 28.4012L77.5745 30.1594Z" fill="black"/>
<path d="M81.1387 31.4852V27.8535H82.6289C83.0818 27.8535 83.4032 27.94 83.5931 28.1129C83.783 28.2859 83.8853 28.5741 83.8853 28.9632C83.8853 29.3523 83.783 29.6406 83.5931 29.7991C83.4032 29.972 83.0818 30.0585 82.6289 30.0585H81.6354V31.4852H81.1387ZM81.6208 29.6406H82.585C82.8772 29.6406 83.0818 29.5829 83.1986 29.482C83.3155 29.3812 83.374 29.2082 83.374 28.9632C83.374 28.7182 83.3155 28.5453 83.1986 28.4444C83.0818 28.3435 82.8772 28.2859 82.585 28.2859H81.6208V29.6406Z" fill="black"/>
<path d="M85.0986 31.4852V27.8535H86.5888C87.0417 27.8535 87.3631 27.94 87.5531 28.1129C87.743 28.2859 87.8452 28.5741 87.8452 28.9632C87.8452 29.3523 87.743 29.6406 87.5531 29.7991C87.3631 29.972 87.0417 30.0585 86.5888 30.0585H85.5954V31.4852H85.0986ZM85.5954 29.6406H86.5596C86.8518 29.6406 87.0563 29.5829 87.1732 29.482C87.2901 29.3812 87.3485 29.2082 87.3485 28.9632C87.3485 28.7182 87.2901 28.5453 87.1732 28.4444C87.0563 28.3435 86.8518 28.2859 86.5596 28.2859H85.5954V29.6406Z" fill="black"/>
<path d="M89.0576 31.4852V27.8535H89.5397V31.0529H91.3806V31.4852H89.0576Z" fill="black"/>
<path d="M92.5781 31.4852V27.8535H93.0602V31.4852H92.5781Z" fill="black"/>
<path d="M94.5801 31.4852V27.8535H97.2098V28.2859H95.0622V29.4244H96.903V29.8567H95.0622V31.0673H97.239V31.4997H94.5801V31.4852Z" fill="black"/>
<path d="M98.5098 31.4852V27.8535H99.6493C100.248 27.8535 100.672 27.9976 100.935 28.2715C101.198 28.5597 101.329 29.0209 101.329 29.655C101.329 30.3035 101.198 30.7647 100.935 31.0385C100.672 31.3267 100.248 31.4564 99.6493 31.4564H98.5098V31.4852ZM98.9919 31.0673H99.6201C100.073 31.0673 100.394 30.9664 100.57 30.7647C100.745 30.5629 100.833 30.2026 100.833 29.6838C100.833 29.165 100.745 28.8047 100.57 28.6029C100.394 28.4012 100.073 28.3003 99.6201 28.3003H98.9919V31.0673Z" fill="black"/>
<path d="M105.742 31.5576C105.187 31.5576 104.778 31.4567 104.515 31.2549V30.7649C104.851 31.0099 105.26 31.1396 105.756 31.1396C106.326 31.1396 106.618 30.9235 106.618 30.5055C106.618 30.347 106.56 30.2317 106.458 30.1452C106.355 30.0588 106.166 29.9867 105.888 29.9291L105.479 29.8426C105.143 29.7705 104.909 29.6552 104.778 29.4967C104.646 29.3382 104.573 29.1364 104.573 28.877C104.573 28.1708 105.011 27.8105 105.873 27.8105C106.355 27.8105 106.691 27.8826 106.911 28.0411V28.5311C106.633 28.3438 106.297 28.2429 105.888 28.2429C105.333 28.2429 105.055 28.4447 105.055 28.8482C105.055 28.9923 105.099 29.1076 105.201 29.1941C105.304 29.2805 105.464 29.3526 105.727 29.3958L106.136 29.4823C106.487 29.5544 106.735 29.6696 106.881 29.8426C107.028 30.0011 107.101 30.2173 107.101 30.4911C107.101 31.1973 106.648 31.5576 105.742 31.5576Z" fill="black"/>
<path d="M109.905 31.5576C109.335 31.5576 108.897 31.399 108.619 31.0964C108.341 30.7938 108.21 30.3182 108.21 29.6841C108.21 29.0499 108.341 28.5744 108.619 28.2717C108.897 27.9691 109.32 27.8105 109.89 27.8105C110.27 27.8105 110.577 27.8682 110.796 27.9979V28.4735C110.533 28.315 110.241 28.2429 109.905 28.2429C109.481 28.2429 109.174 28.3582 108.984 28.5888C108.794 28.8194 108.692 29.1797 108.692 29.6841C108.692 30.1885 108.794 30.5632 108.984 30.7938C109.174 31.0243 109.481 31.1396 109.919 31.1396C110.255 31.1396 110.548 31.0676 110.796 30.909V31.3846C110.591 31.4855 110.285 31.5576 109.905 31.5576Z" fill="black"/>
<path d="M112.082 31.4852V27.8535H112.564V31.4852H112.082Z" fill="black"/>
<path d="M114.083 31.4852V27.8535H116.713V28.2859H114.565V29.4244H116.406V29.8567H114.565V31.0673H116.742V31.4997H114.083V31.4852Z" fill="black"/>
<path d="M118.014 31.4852V27.8535H118.627L120.468 30.6206V27.8535H120.936V31.4852H120.483L118.481 28.502V31.4997H118.014V31.4852Z" fill="black"/>
<path d="M123.974 31.5576C123.404 31.5576 122.966 31.399 122.688 31.0964C122.411 30.7938 122.279 30.3182 122.279 29.6841C122.279 29.0499 122.411 28.5744 122.688 28.2717C122.966 27.9691 123.39 27.8105 123.959 27.8105C124.339 27.8105 124.646 27.8682 124.865 27.9979V28.4735C124.602 28.315 124.31 28.2429 123.974 28.2429C123.55 28.2429 123.244 28.3582 123.054 28.5888C122.864 28.8194 122.761 29.1797 122.761 29.6841C122.761 30.1885 122.864 30.5632 123.054 30.7938C123.244 31.0243 123.55 31.1396 123.989 31.1396C124.325 31.1396 124.617 31.0676 124.865 30.909V31.3846C124.646 31.4855 124.354 31.5576 123.974 31.5576Z" fill="black"/>
<path d="M126.137 31.4852V27.8535H128.766V28.2859H126.619V29.4244H128.46V29.8567H126.619V31.0673H128.796V31.4997H126.137V31.4852Z" fill="black"/>
<path d="M131.163 31.5576C130.608 31.5576 130.199 31.4567 129.936 31.2549V30.7649C130.272 31.0099 130.681 31.1396 131.177 31.1396C131.747 31.1396 132.039 30.9235 132.039 30.5055C132.039 30.347 131.981 30.2317 131.879 30.1452C131.776 30.0588 131.586 29.9867 131.309 29.9291L130.9 29.8426C130.564 29.7705 130.33 29.6552 130.199 29.4967C130.067 29.3382 129.994 29.1364 129.994 28.877C129.994 28.1708 130.432 27.8105 131.294 27.8105C131.776 27.8105 132.112 27.8826 132.332 28.0411V28.5311C132.054 28.3438 131.718 28.2429 131.309 28.2429C130.754 28.2429 130.476 28.4447 130.476 28.8482C130.476 28.9923 130.52 29.1076 130.622 29.1941C130.724 29.2805 130.885 29.3526 131.148 29.3958L131.557 29.4823C131.908 29.5544 132.156 29.6696 132.302 29.8426C132.448 30.0011 132.521 30.2173 132.521 30.4911C132.521 31.1973 132.069 31.5576 131.163 31.5576Z" fill="black"/>
<path d="M107.962 13.5435V12.5059H103.988V13.5435H105.289V21.3114H103.988V22.3634H107.962V21.3114H106.662V13.5435H107.962Z" fill="black"/>
<path d="M12.2115 16.5112C9.31883 17.7073 5.98783 16.3526 4.78983 13.4991C4.36615 12.4903 4.26389 11.4239 4.4392 10.415H1.03515C0.874441 11.8562 1.07898 13.355 1.67797 14.7818C3.60645 19.3358 8.89515 21.4832 13.5118 19.5808C14.9436 18.99 16.1416 18.082 17.062 16.9579L14.6514 14.58C14.0524 15.4159 13.2196 16.0932 12.2115 16.5112Z" fill="black"/>
<path d="M9.37738 8.34016C9.78645 5.27048 12.6499 3.12315 15.7618 3.52667C16.8575 3.67079 17.851 4.11755 18.6399 4.78049L20.3492 1.88375C19.1659 1.03346 17.7633 0.442585 16.2001 0.240822C11.2474 -0.407701 6.70381 3.02227 6.03176 7.90781C5.82723 9.43544 6.01715 10.9054 6.5431 12.2457L9.83028 11.3954C9.4066 10.4731 9.23128 9.42103 9.37738 8.34016Z" fill="black"/>
<path d="M17.9532 10.0266C20.4369 11.9146 20.8898 15.431 18.9759 17.881C18.3039 18.7457 17.4127 19.3654 16.4338 19.7113L18.1139 22.6224C19.458 22.0459 20.6706 21.1236 21.6349 19.8986C24.6883 15.9931 23.9578 10.3869 19.9986 7.38932C18.7714 6.45256 17.3688 5.87609 15.9371 5.64551L15.0459 8.88813C16.0686 8.98901 17.0766 9.36371 17.9532 10.0266Z" fill="black"/>
</g>
<defs>
<clipPath id="clip0_2054_2686">
<rect width="133" height="32" fill="white"/>
</clipPath>
</defs>
</svg>
