<?xml version="1.0" encoding="UTF-8"?> <svg xmlns="http://www.w3.org/2000/svg" xmlns:xlink="http://www.w3.org/1999/xlink" width="200px" height="48px" viewBox="0 0 200 48" version="1.1"><g stroke="none" stroke-width="1" fill="none" fill-rule="evenodd"><g fill-rule="nonzero"><path d="M0,4.63915197e-05 L0,46.9850528 L29.1827015,46.9850528 L29.1827015,39.6412405 L8.53530896,39.6412405 L8.53530896,27.0013606 L24.3532747,27.0013606 L24.3532747,19.6552751 L8.53530896,19.6552751 L8.53530896,7.34612034 L28.1248588,7.34612034 L28.1248588,4.63915197e-05 L0,4.63915197e-05 Z M186.961443,0 L186.961443,36.4654046 C186.961443,46.1272156 192.719002,47.3157664 197.351972,47.3157664 C198.742175,47.3157664 200,47.1164336 200,47.1164336 L200,39.7726212 C200,39.7726212 199.403115,39.8382652 198.742813,39.8382652 C196.557772,39.8382652 195.299692,38.9125921 195.299692,35.2059096 L195.299692,0 L186.961443,0 Z M127.270878,12.4405819 C119.990494,12.4405819 114.365975,16.0814 114.365975,22.369005 C114.365963,33.2199815 130.777427,32.558566 130.777427,37.5889492 C130.777427,39.5745063 128.725832,40.6333927 126.344404,40.6333927 C120.851649,40.6333927 117.143122,36.9275105 117.143122,36.9275105 L113.305848,42.8147915 C113.305848,42.8147915 118.003232,47.7801339 126.407833,47.7801339 C134.41501,47.7801339 139.314998,43.2803884 139.314998,37.6546396 C139.314998,26.8005781 122.901284,27.3984372 122.901284,22.6340281 C122.901284,20.5139357 125.017874,19.5895847 127.202914,19.5895847 C132.363205,19.5895847 135.475473,22.5003858 135.475473,22.5003858 L138.585607,16.280118 C138.585607,16.280118 134.88063,12.4405819 127.270878,12.4405819 Z M162.07811,12.4429015 C151.820945,12.4429015 143.548676,19.7878852 143.548676,30.1115409 C143.548676,40.5016988 151.822407,47.7824535 162.146062,47.7824535 C172.403227,47.7824535 180.673223,40.5016988 180.673223,30.1115409 C180.673223,19.7878852 172.401766,12.4429015 162.07811,12.4429015 L162.07811,12.4429015 Z M88.1937236,12.8551713 C79.1767546,12.8551713 71.2340858,19.5806079 71.2340858,30.2429333 C71.2340858,40.9037045 79.1767546,47.7009088 88.1937236,47.7009088 C92.3442221,47.7009088 97.2093935,45.8413859 99.4269082,42.1919158 L99.4269082,46.9873724 L106.725408,46.9873724 L106.725408,13.5709809 L99.4269082,13.5709809 L99.4269082,18.2916775 C97.1367096,14.5014904 92.2004083,12.8551713 88.1937236,12.8551713 Z M59.5841081,13.5143484 L53.232448,21.9046839 L58.1683433,28.3401503 L69.4672183,13.5302027 L59.5841081,13.5143484 Z M162.146062,19.5896427 C167.572328,19.5896427 172.137914,23.8904381 172.137914,30.1115409 C172.137914,36.3975918 167.572328,40.6334507 162.146062,40.6334507 C156.653306,40.6334507 152.086259,36.3975918 152.086259,30.1115409 C152.086259,23.8904381 156.653306,19.5896427 162.146062,19.5896427 Z M89.0499718,20.0109704 C94.060256,20.0109704 99.356683,23.5866548 99.356683,30.1727081 C99.356683,36.7541222 94.4886005,40.5451096 89.0499718,40.5451096 C83.4706145,40.5451096 78.818009,36.3257661 78.818009,30.1727081 C78.818009,24.0180959 83.4706145,20.0109704 89.0499718,20.0109704 Z M58.1683433,32.1615125 L53.232448,38.5947058 L59.5841081,46.9850528 L69.4672183,46.9714833 L58.1683433,32.1615125 Z" fill="#093E52"></path><polygon fill="#5FC33B" points="33.6845693 46.9857023 46.5442986 30.2213496 33.7448783 13.5358625 43.6216329 13.5416614 56.416414 30.2209553 43.5582272 46.985308"></polygon></g></g></svg> 